<svg width="40" height="40" viewBox="0 0 40 40" fill="none" xmlns="http://www.w3.org/2000/svg">
<path d="M31.8762 19.9345V0H5.26825C2.38934 0 0.0338745 2.35547 0.0338745 5.23438V34.7656C0.0338745 37.6565 2.37739 40 5.26825 40H29.7247C35.3245 40 39.9904 35.4184 39.9661 29.8187C39.9449 24.9502 36.4737 20.8809 31.8762 19.9345ZM29.5367 19.7314C24.3672 19.8788 20.1551 23.9153 19.729 29.0115H9.49512V2.33945H29.5367V19.7314ZM5.23458 2.33945H7.15567V29.0115H5.52809C4.38442 29.0115 3.32153 29.3631 2.44106 29.9634V5.13297C2.44106 3.59258 3.69419 2.33945 5.23458 2.33945ZM5.52809 37.6605C3.78856 37.6605 2.37333 36.2453 2.37333 34.5058C2.37333 32.7663 3.78856 31.351 5.52809 31.351H19.8023C19.9008 32.0181 20.0647 32.6642 20.287 33.2827H6.02997V35.6222H21.4925C22.02 36.3836 22.6487 37.0697 23.3595 37.6605H5.52809ZM29.8295 37.6605C25.5301 37.6605 22.0323 34.1628 22.0323 29.8634C22.0323 25.5641 25.5301 22.0663 29.8295 22.0663C34.1288 22.0663 37.6266 25.5641 37.6266 29.8634C37.6266 34.1628 34.1289 37.6605 29.8295 37.6605Z" fill="#929292"/>
<path d="M30.9993 26.2985H28.6598V28.6936H26.2645V31.0331H28.6598V33.4283H30.9993V31.0331H33.3945V28.6936H30.9993V26.2985Z" fill="#929292"/>
<path d="M15.7357 6.88831H23.5654V9.22776H15.7357V6.88831Z" fill="#929292"/>
<path d="M13.0909 11.9672H26.2101V14.3067H13.0909V11.9672Z" fill="#929292"/>
</svg>
